<?xml version="1.0" encoding="UTF-8" standalone="no"?>
<!-- Created with Inkscape (http://www.inkscape.org/) -->

<svg
   xmlns:dc="http://purl.org/dc/elements/1.1/"
   xmlns:cc="http://creativecommons.org/ns#"
   xmlns:rdf="http://www.w3.org/1999/02/22-rdf-syntax-ns#"
   xmlns:svg="http://www.w3.org/2000/svg"
   xmlns="http://www.w3.org/2000/svg"
   xmlns:xlink="http://www.w3.org/1999/xlink"
   xmlns:sodipodi="http://sodipodi.sourceforge.net/DTD/sodipodi-0.dtd"
   xmlns:inkscape="http://www.inkscape.org/namespaces/inkscape"
   width="744.09448819"
   height="1052.3622047"
   id="svg2023"
   sodipodi:version="0.32"
   inkscape:version="0.48.0 r9654"
   sodipodi:docname="title.svg"
   version="1.1">
  <defs
     id="defs2025">
    <linearGradient
       id="linearGradient4614">
      <stop
         style="stop-color:#64649b;stop-opacity:1;"
         offset="0"
         id="stop4616" />
      <stop
         style="stop-color:#000000;stop-opacity:1;"
         offset="1"
         id="stop4618" />
    </linearGradient>
    <linearGradient
       inkscape:collect="always"
       xlink:href="#linearGradient4614"
       id="linearGradient4620"
       x1="347.00262"
       y1="157.36702"
       x2="326.76913"
       y2="825.07788"
       gradientUnits="userSpaceOnUse"
       gradientTransform="matrix(1.3973964,0,0,0.90816523,-156.34298,76.605749)" />
  </defs>
  <sodipodi:namedview
     id="base"
     pagecolor="#ffffff"
     bordercolor="#666666"
     borderopacity="1.0"
     inkscape:pageopacity="0.0"
     inkscape:pageshadow="2"
     inkscape:zoom="0.98994949"
     inkscape:cx="226.76524"
     inkscape:cy="471.47784"
     inkscape:document-units="px"
     inkscape:current-layer="layer1"
     inkscape:window-width="1680"
     inkscape:window-height="927"
     inkscape:window-x="0"
     inkscape:window-y="24"
     showgrid="false"
     inkscape:window-maximized="1" />
  <metadata
     id="metadata2028">
    <rdf:RDF>
      <cc:Work
         rdf:about="">
        <dc:format>image/svg+xml</dc:format>
        <dc:type
           rdf:resource="http://purl.org/dc/dcmitype/StillImage" />
        <dc:title />
      </cc:Work>
    </rdf:RDF>
  </metadata>
  <g
     inkscape:label="Sluoksnis 1"
     inkscape:groupmode="layer"
     id="layer1">
    <rect
       style="fill:url(#linearGradient4620);fill-opacity:1;stroke:#000000;stroke-width:1.08522356;stroke-linecap:butt;stroke-linejoin:miter;stroke-miterlimit:4;stroke-opacity:1;stroke-dasharray:none"
       id="rect4104"
       width="925.99872"
       height="614.64819"
       x="-97.056465"
       y="219.52101"
       inkscape:export-xdpi="46.626064"
       inkscape:export-ydpi="46.626064" />
    <g
       id="g5679"
       transform="matrix(0.91531963,-0.40272816,0.40272816,0.91531963,-430.50162,622.01943)"
       style="opacity:0.66545458;stroke-width:2;stroke-miterlimit:4;stroke-dasharray:none">
      <path
         inkscape:export-ydpi="76.844551"
         inkscape:export-xdpi="76.844551"
         inkscape:export-filename="/home/jrsoul/Projektai/NoisyNeighbors/path3220.png"
         sodipodi:nodetypes="ccccccccccccc"
         id="path3222"
         d="m 1057.7135,436.31905 1.0102,46.81853 11.4062,0 -3.5625,-21.4375 12.875,20.71875 7.8438,-5.71875 -16.4375,-20.71875 25,-9.28125 z m 7.1639,8.10819 10.5633,3.71034 -9.592,3.91212 z"
         style="fill:#e6e6e6;stroke:#000000;stroke-width:2;stroke-linecap:butt;stroke-linejoin:miter;stroke-miterlimit:4;stroke-opacity:1;stroke-dasharray:none"
         inkscape:connector-curvature="0" />
      <path
         inkscape:export-ydpi="76.844551"
         inkscape:export-xdpi="76.844551"
         inkscape:export-filename="/home/jrsoul/Projektai/NoisyNeighbors/path3220.png"
         sodipodi:nodetypes="ccccccccccccc"
         inkscape:connector-curvature="0"
         style="fill:#e6e6e6;stroke:#000000;stroke-width:2;stroke-linecap:butt;stroke-linejoin:miter;stroke-miterlimit:4;stroke-opacity:1;stroke-dasharray:none"
         d="m 1031.5375,436.36237 0.7576,46.06092 11.4062,0 -3.5625,-21.4375 12.875,20.71875 7.8438,-5.71875 -16.4375,-20.71875 25,-9.28125 z m 6.6588,8.10819 9.048,2.70019 -8.0768,2.90197 z"
         id="path3216" />
      <path
         inkscape:export-ydpi="76.844551"
         inkscape:export-xdpi="76.844551"
         inkscape:export-filename="/home/jrsoul/Projektai/NoisyNeighbors/path3220.png"
         sodipodi:nodetypes="ccccccccccccc"
         inkscape:connector-curvature="0"
         id="path3208"
         d="m 1001.3283,437.07666 0.2525,46.06092 11.4062,0 -3.5625,-21.4375 12.875,20.71875 7.8438,-5.71875 -16.4375,-20.71875 25,-9.28125 z m 6.6587,9.62342 9.0481,1.69004 -8.8344,4.41719 z"
         style="fill:#e6e6e6;stroke:#000000;stroke-width:2;stroke-linecap:butt;stroke-linejoin:miter;stroke-miterlimit:4;stroke-opacity:1;stroke-dasharray:none" />
      <path
         inkscape:export-ydpi="76.844551"
         inkscape:export-xdpi="76.844551"
         inkscape:export-filename="/home/jrsoul/Projektai/NoisyNeighbors/path3220.png"
         sodipodi:nodetypes="cccccccc"
         inkscape:connector-curvature="0"
         id="path3206"
         d="m 977.27276,442.43222 0,41.40625 33.59374,-22.125 z m 7.15625,12.84375 12.84375,6.4375 -12.125,5.95939 z"
         style="fill:#e6e6e6;stroke:#000000;stroke-width:2;stroke-linecap:butt;stroke-linejoin:miter;stroke-miterlimit:4;stroke-opacity:1;stroke-dasharray:none" />
      <path
         inkscape:export-ydpi="76.844551"
         inkscape:export-xdpi="76.844551"
         inkscape:export-filename="/home/jrsoul/Projektai/NoisyNeighbors/path3220.png"
         inkscape:connector-curvature="0"
         style="fill:#e6e6e6;stroke:#000000;stroke-width:2;stroke-linecap:butt;stroke-linejoin:miter;stroke-miterlimit:4;stroke-opacity:1;stroke-dasharray:none"
         d="m 953.70133,442.43222 0,41.40625 33.59375,-22.125 -33.59375,-19.28125 z m 7.15625,12.84375 12.84375,6.4375 -12.125,10 -0.71875,-16.4375 z"
         id="path3218" />
      <path
         inkscape:export-ydpi="76.844551"
         inkscape:export-xdpi="76.844551"
         sodipodi:nodetypes="cccccccc"
         id="path3220"
         d="m 953.70133,442.43222 0,41.40625 33.59375,-22.125 z m 7.15625,12.84375 12.84375,6.4375 -12.37754,6.21193 z"
         style="fill:#e6e6e6;stroke:#000000;stroke-width:2;stroke-linecap:butt;stroke-linejoin:miter;stroke-miterlimit:4;stroke-opacity:1;stroke-dasharray:none"
         inkscape:connector-curvature="0" />
    </g>
    <g
       transform="matrix(0.7236499,0.69016724,-0.69016724,0.7236499,132.95537,-150.10559)"
       id="g5729"
       style="opacity:0.41818183;stroke-width:2;stroke-miterlimit:4;stroke-dasharray:none">
      <path
         style="fill:#ffff00;stroke:#000000;stroke-width:2;stroke-linecap:butt;stroke-linejoin:miter;stroke-miterlimit:4;stroke-opacity:1;stroke-dasharray:none"
         d="m 948.79236,269.69667 14.14214,27.27412 4.54569,-18.68782 11.11167,18.18275 8.08122,-35.86042 -12.6269,0 0.50507,18.18275 -8.08122,-14.14214 -5.55584,15.65736 -2.0203,-20.20305 z"
         id="path5731"
         inkscape:connector-curvature="0"
         sodipodi:nodetypes="ccccccccccc"
         inkscape:export-filename="/home/jrsoul/Projektai/NoisyNeighbors/path5126.png"
         inkscape:export-xdpi="77"
         inkscape:export-ydpi="77" />
      <path
         style="fill:#ffff00;stroke:#000000;stroke-width:2;stroke-linecap:butt;stroke-linejoin:miter;stroke-miterlimit:4;stroke-opacity:1;stroke-dasharray:none"
         d="m 1002.304,248.80722 c -4.35745,-0.22983 -10.53519,5.30284 -13.15624,14 -4.93375,16.37111 10.65736,26.20371 16.71874,1.8125 2.7126,-10.91575 0.2823,-15.6097 -3.5625,-15.8125 z m -3.03124,10.4375 c 4.04524,-0.008 5.28694,7.18213 1.03124,8.40625 -5.04372,1.45081 -9.45514,-3.89064 -3.53124,-7.59375 0.92561,-0.57861 1.75089,-0.81103 2.5,-0.8125 z"
         id="path5733"
         inkscape:connector-curvature="0"
         sodipodi:nodetypes="ssssssss"
         inkscape:export-filename="/home/jrsoul/Projektai/NoisyNeighbors/path5126.png"
         inkscape:export-xdpi="77"
         inkscape:export-ydpi="77" />
      <path
         style="fill:#ffff00;stroke:#000000;stroke-width:2;stroke-linecap:butt;stroke-linejoin:miter;stroke-miterlimit:4;stroke-opacity:1;stroke-dasharray:none"
         d="m 1017.2728,259.86972 c -10.8592,0.50508 -16.0116,33.24923 0.7187,25.96875 14.6218,-6.36294 10.1404,-26.47382 -0.7187,-25.96875 z m -0.25,8.25 c 0.15,2e-4 0.2788,0.008 0.4375,0.0312 5.0754,0.75825 0.6972,13.01367 -2.5313,11.9375 -3.1276,-1.04253 -2.5579,-11.9749 2.0938,-11.96875 z"
         id="path5735"
         inkscape:connector-curvature="0"
         sodipodi:nodetypes="sssccsc"
         inkscape:export-filename="/home/jrsoul/Projektai/NoisyNeighbors/path5126.png"
         inkscape:export-xdpi="77"
         inkscape:export-ydpi="77" />
      <path
         style="fill:#ffff00;stroke:#000000;stroke-width:2;stroke-linecap:butt;stroke-linejoin:miter;stroke-miterlimit:4;stroke-opacity:1;stroke-dasharray:none"
         d="m 1030.8896,254.4367 1.0101,24.74873 5.6425,6.07143 -0.3571,-17.08593 8.8568,2.16823 0.505,-7.99456 -9.6323,-0.77556 1.4286,-6.65265 8.7088,1.54061 1.5152,-11.61675 z"
         id="path5737"
         inkscape:connector-curvature="0"
         sodipodi:nodetypes="ccccccccccc"
         inkscape:export-xdpi="77"
         inkscape:export-ydpi="77" />
    </g>
    <g
       id="g5693"
       transform="matrix(1.1718862,-0.90017002,0.80670828,1.3076559,-1091.0938,1345.3513)"
       style="opacity:0.54181818;stroke-width:1.3307929;stroke-miterlimit:4;stroke-dasharray:none">
      <path
         inkscape:export-ydpi="81.277954"
         inkscape:export-xdpi="81.277954"
         inkscape:export-filename="/home/jrsoul/Projektai/NoisyNeighbors/path4005.png"
         sodipodi:nodetypes="ccssccszc"
         inkscape:connector-curvature="0"
         id="path3999"
         d="m 1183.6423,197.93995 -0.5051,18.68782 c 1.3125,-3.93735 -17.5977,-15.94145 -19.6979,-1.51523 -1.3526,9.29029 24.3309,-0.43611 25.7589,16.16244 1.5839,18.41227 -28.6347,19.20429 -33.0825,17.42514 l -0.7577,-21.97083 c 0,0 18.6879,14.64722 21.4658,7.07107 4.0142,-10.94786 -23.3512,-3.93744 -19.698,-20.96066 3.6532,-17.02322 10.4643,-5.95159 26.5165,-14.89975 z"
         style="fill:#ff0000;stroke:#000000;stroke-width:1.3307929;stroke-linecap:butt;stroke-linejoin:miter;stroke-miterlimit:4;stroke-opacity:1;stroke-dasharray:none" />
      <path
         inkscape:export-ydpi="81.277954"
         inkscape:export-xdpi="81.277954"
         inkscape:export-filename="/home/jrsoul/Projektai/NoisyNeighbors/path4005.png"
         inkscape:connector-curvature="0"
         id="path4001"
         d="m 1184.6525,208.29401 -1.5153,47.47717 29.2945,0.50508 -4.0406,-34.85027 c 0,0 -3.0305,17.67767 -10.1016,19.1929 -7.071,1.51523 -6.0609,0 -6.0609,0 l 1.5152,-34.85026 z"
         style="fill:#ff0000;stroke:#000000;stroke-width:1.3307929;stroke-linecap:butt;stroke-linejoin:miter;stroke-miterlimit:4;stroke-opacity:1;stroke-dasharray:none" />
      <path
         inkscape:export-ydpi="81.277954"
         inkscape:export-xdpi="81.277954"
         inkscape:export-filename="/home/jrsoul/Projektai/NoisyNeighbors/path4005.png"
         sodipodi:nodetypes="cccccccccccc"
         inkscape:connector-curvature="0"
         id="path4003"
         d="m 1211.9384,193.39589 -2.5313,55.5625 10.853,0.51015 -2.5313,-21.99238 6.5676,-1.75762 7.8295,23.23985 13.6562,-3.53125 z m 4.7812,17.15625 6.0811,10.85898 -5.8311,2.2914 z"
         style="fill:#ff0000;stroke:#000000;stroke-width:1.3307929;stroke-linecap:butt;stroke-linejoin:miter;stroke-miterlimit:4;stroke-opacity:1;stroke-dasharray:none" />
      <path
         inkscape:export-ydpi="81.277954"
         inkscape:export-xdpi="81.277954"
         sodipodi:nodetypes="ccccccccccc"
         inkscape:connector-curvature="0"
         id="path4005"
         d="m 1229.6043,204.75848 7.071,53.53808 11.1117,-0.50507 -7.0711,-24.24366 12.8795,23.23351 -2.0203,-26.01144 9.3439,25.50636 8.0812,-6.06092 c -8.8561,-11.79141 -22.7284,-47.98224 -22.7284,-47.98224 l -0.5051,22.47589 z"
         style="fill:#ff0000;stroke:#000000;stroke-width:1.3307929;stroke-linecap:butt;stroke-linejoin:miter;stroke-miterlimit:4;stroke-opacity:1;stroke-dasharray:none" />
    </g>
    <g
       id="g5755"
       transform="translate(121.42857,70)">
      <path
         inkscape:connector-curvature="0"
         id="path4624"
         d="m 302.85714,251.6479 -3.57143,10.71428 20.71429,12.14286 21.42857,-4.28572 9.28572,-11.42857 -9.28572,-12.85714 -5,5 5.71429,10.71429 -9.28572,-7.14286 -7.85714,2.85714 5.71429,9.28572 -8.57143,-8.57143 -5,0.71428 -0.71429,10.71429 -2.14286,-12.14286 -5,-2.14286 -2.14285,6.42858 1.42857,-9.28572 z"
         style="fill:#ffffff;stroke:#000000;stroke-width:1px;stroke-linecap:butt;stroke-linejoin:miter;stroke-opacity:1" />
      <path
         inkscape:connector-curvature="0"
         id="path4622"
         d="m 295,218.07647 7.85714,20.71428 5.71429,-2.85714 -4.28572,-20.71429 7.85715,18.57143 4.28571,0 L 315,212.36218 l 6.42857,21.42857 7.14286,0.71429 0.71428,-23.57143 5,24.28571 4.28572,2.14286 6.42857,-19.28571 -15,-17.14286 -24.28571,7.85714 z"
         style="fill:#ffffff;stroke:#000000;stroke-width:1px;stroke-linecap:butt;stroke-linejoin:miter;stroke-opacity:1" />
      <g
         style="stroke-width:4.92532969;stroke-miterlimit:4;stroke-dasharray:none"
         transform="matrix(0.82119028,0,0,0.80316645,85.606199,111.87274)"
         id="g4079">
        <path
           style="fill:#ff0000;stroke:#000000;stroke-width:4.92532969;stroke-linecap:butt;stroke-linejoin:miter;stroke-miterlimit:4;stroke-opacity:1;stroke-dasharray:none"
           d="m 135.86456,98.434644 34.28108,104.720726 -23.99675,70.48511 63.41999,-16.11088 -8.57026,-60.4158 -25.71081,-56.38809 68.56215,82.56827 1.71406,-155.067236 -46.27945,0 30.85296,98.679146 -66.8481,-66.45739 z"
           id="path4015"
           inkscape:connector-curvature="0" />
        <path
           inkscape:connector-curvature="0"
           id="path4017"
           transform="matrix(1.2177446,0,0,1.2450719,-105.98612,-137.51094)"
           d="m 320.28125,189.28125 c -55.99436,1.18164 -47.59007,101.29268 2.375,98.71875 50.75817,-2.61479 59.31007,-96.64627 0.34375,-98.6875 -0.92135,-0.0319 -1.82995,-0.05 -2.71875,-0.0312 z M 320,214.4375 c 0.53967,-0.006 1.09791,0.0105 1.65625,0.0312 35.73352,1.32628 35.87892,54.86049 1.34375,53.75 -33.99555,-1.09313 -36.9995,-53.41188 -3,-53.78125 z"
           style="fill:#ff0000;stroke:#000000;stroke-width:4;stroke-linecap:butt;stroke-linejoin:miter;stroke-miterlimit:4;stroke-opacity:1;stroke-dasharray:none" />
        <path
           style="fill:#ff0000;stroke:#000000;stroke-width:4.92532969;stroke-linecap:butt;stroke-linejoin:miter;stroke-miterlimit:4;stroke-opacity:1;stroke-dasharray:none"
           d="m 333.76897,128.8216 -5.71428,65.71429 28.57143,5.71429 0,-77.14286 z"
           id="path4021"
           inkscape:connector-curvature="0" />
        <path
           style="fill:#ff0000;stroke:#000000;stroke-width:4.92532969;stroke-linecap:butt;stroke-linejoin:miter;stroke-miterlimit:4;stroke-opacity:1;stroke-dasharray:none"
           d="m 336.62612,85.964461 -7.14286,22.857139 17.14286,8.57143 10,-17.14285 z"
           id="path4023"
           inkscape:connector-curvature="0" />
        <path
           style="fill:#ff0000;stroke:#000000;stroke-width:4.92532969;stroke-linecap:butt;stroke-linejoin:miter;stroke-miterlimit:4;stroke-opacity:1;stroke-dasharray:none"
           d="m 388.57143,118.07647 38.57143,38.57143 -28.57143,57.14285 28.57143,1.42858 41.42857,-102.85715 -30,4.28572 -4.28572,30 -27.14285,-38.57143 z"
           id="path4027"
           inkscape:connector-curvature="0" />
        <path
           sodipodi:nodetypes="czcczcc"
           style="fill:#ff0000;stroke:#000000;stroke-width:4.92532969;stroke-linecap:butt;stroke-linejoin:miter;stroke-miterlimit:4;stroke-opacity:1;stroke-dasharray:none"
           d="m 414.6808,124.02331 c 0,0 -44.66243,-3.29463 -47.61843,17.48458 -2.956,20.77921 43.63669,33.26655 -12.30108,39.82914 l 8.57143,22.85715 c 0,0 33.46517,3.82354 35.43717,-26.056 1.972,-29.87955 -52.69443,-46.65151 16.07005,-32.85715 z"
           id="path4025"
           inkscape:connector-curvature="0" />
        <path
           style="fill:#ff7f2a;stroke:#000000;stroke-width:4.92532969;stroke-linecap:butt;stroke-linejoin:miter;stroke-miterlimit:4;stroke-opacity:1;stroke-dasharray:none"
           d="M 185.71429,305.21933 170,400.93361 l 32.85714,-4.28571 1.42857,-61.42857 31.42858,50 28.57142,-112.85715 -31.42857,-2.85714 -7.14285,67.14286 -22.85715,-65.71429 -21.42857,-1.42857 z"
           id="path4031"
           inkscape:connector-curvature="0" />
        <path
           style="fill:#ff6600;stroke:#000000;stroke-width:4.92532969;stroke-linecap:butt;stroke-linejoin:miter;stroke-miterlimit:4;stroke-opacity:1;stroke-dasharray:none"
           d="m 248.57143,262.36218 15.71428,107.14286 41.42858,-14.28571 -14.28572,-34.28572 -15.71428,8.57143 -4.28572,-24.28571 21.42857,8.57142 -4.28571,-30 -20,12.85715 -1.42857,-27.14286 21.42857,11.42857 -5.71429,-42.85714 -31.42857,17.14286 z"
           id="path4033"
           inkscape:connector-curvature="0" />
        <path
           style="fill:#ff7f2a;stroke:#000000;stroke-width:4.92532969;stroke-linecap:butt;stroke-linejoin:miter;stroke-miterlimit:4;stroke-opacity:1;stroke-dasharray:none"
           d="M 308.57143,246.6479 304.28571,360.93361 330,352.36218 332.85714,236.6479 z"
           id="path4035"
           inkscape:connector-curvature="0" />
        <path
           style="fill:#ff6600;stroke:#000000;stroke-width:4.92532969;stroke-linecap:butt;stroke-linejoin:miter;stroke-miterlimit:4;stroke-opacity:1;stroke-dasharray:none"
           d="m 344.28571,239.50504 -10,124.28571 22.85715,-10 -4.28572,-55.71428 27.14286,0 -1.42857,52.85714 24.28571,5.71429 8.57143,-132.85715 -30,1.42858 0,60 -28.57143,-10 5.71429,-47.14286 z"
           id="path4037"
           inkscape:connector-curvature="0" />
        <path
           style="fill:#ff7f2a;stroke:#000000;stroke-width:4.92532969;stroke-linecap:butt;stroke-linejoin:miter;stroke-miterlimit:4;stroke-opacity:1;stroke-dasharray:none"
           d="M 447.14286,232.36218 400,269.50504 l -4.28571,68.57143 50,45.71428 44.28571,-60 -45.71429,-27.14285 -10,24.28571 31.42858,4.28572 -22.85715,21.42857 -32.85714,-30 5.71429,-42.85715 37.14285,-15.71428 z"
           id="path4039"
           inkscape:connector-curvature="0" />
        <path
           inkscape:connector-curvature="0"
           id="path4041"
           transform="matrix(1.2177446,0,0,1.2450719,-105.98612,-137.51094)"
           d="m 502.3125,284.4375 -35.1875,3.46875 0,123.90625 43.40625,-20.65625 3.53125,-55.0625 -24.65625,-2.3125 12.90625,-19.5 0,-29.84375 z m -24.625,14.9375 14.0625,5.71875 -12.875,17.21875 -1.1875,-22.9375 z m 8.21875,50.46875 16.40625,10.34375 -16.40625,21.78125 0,-32.125 z"
           style="fill:#d45500;stroke:#000000;stroke-width:4;stroke-linecap:butt;stroke-linejoin:miter;stroke-miterlimit:4;stroke-opacity:1;stroke-dasharray:none" />
        <path
           inkscape:connector-curvature="0"
           id="path4043"
           transform="matrix(1.2177446,0,0,1.2450719,-105.98612,-137.51094)"
           d="m 517.5625,283.3125 -12.90625,52.78125 27,55.0625 26.96875,-64.25 -41.0625,-43.59375 z m 7.0625,34.40625 12.90625,8.03125 -4.71875,29.84375 -14.0625,-13.78125 5.875,-24.09375 z"
           style="fill:#ff7f2a;stroke:#000000;stroke-width:4;stroke-linecap:butt;stroke-linejoin:miter;stroke-miterlimit:4;stroke-opacity:1;stroke-dasharray:none" />
        <path
           inkscape:connector-curvature="0"
           id="path4047"
           transform="matrix(1.2177446,0,0,1.2450719,-105.98612,-137.51094)"
           d="m 584.4375,285.59375 -36.375,2.3125 -3.5,102.09375 16.40625,0 -7.03125,-60.8125 29.34375,58.53125 16.40625,-26.40625 -34.03125,-32.125 28.15625,-24.09375 -9.375,-19.5 z M 560.96875,300.5 l 15.25,1.15625 -15.25,17.21875 0,-18.375 z"
           style="fill:#ff7f2a;stroke:#000000;stroke-width:4;stroke-linecap:butt;stroke-linejoin:miter;stroke-miterlimit:4;stroke-opacity:1;stroke-dasharray:none" />
        <path
           style="fill:#d45500;stroke:#000000;stroke-width:4.92532969;stroke-linecap:butt;stroke-linejoin:miter;stroke-miterlimit:4;stroke-opacity:1;stroke-dasharray:none"
           d="M 631.42857,203.79075 587.14286,256.6479 640,262.36218 l -42.85714,70 25.71428,14.28572 L 670,248.07647 l -48.57143,-7.14286 32.85714,-27.14286 z"
           id="path4051"
           inkscape:connector-curvature="0" />
      </g>
    </g>
    <g
       id="g5687"
       transform="translate(-1010,298.57143)"
       style="stroke-width:2;stroke-miterlimit:4;stroke-dasharray:none;opacity:0.40727273">
      <path
         inkscape:export-ydpi="77"
         inkscape:export-xdpi="77"
         inkscape:export-filename="/home/jrsoul/Projektai/NoisyNeighbors/path5126.png"
         sodipodi:nodetypes="ccccccccccc"
         inkscape:connector-curvature="0"
         id="path5118"
         d="m 948.79236,269.69667 14.14214,27.27412 4.54569,-18.68782 11.11167,18.18275 8.08122,-35.86042 -12.6269,0 0.50507,18.18275 -8.08122,-14.14214 -5.55584,15.65736 -2.0203,-20.20305 z"
         style="fill:#ffff00;stroke:#000000;stroke-width:2;stroke-linecap:butt;stroke-linejoin:miter;stroke-miterlimit:4;stroke-opacity:1;stroke-dasharray:none" />
      <path
         inkscape:export-ydpi="77"
         inkscape:export-xdpi="77"
         inkscape:export-filename="/home/jrsoul/Projektai/NoisyNeighbors/path5126.png"
         sodipodi:nodetypes="ssssssss"
         inkscape:connector-curvature="0"
         id="path5120"
         d="m 1002.304,248.80722 c -4.35745,-0.22983 -10.53519,5.30284 -13.15624,14 -4.93375,16.37111 10.65736,26.20371 16.71874,1.8125 2.7126,-10.91575 0.2823,-15.6097 -3.5625,-15.8125 z m -3.03124,10.4375 c 4.04524,-0.008 5.28694,7.18213 1.03124,8.40625 -5.04372,1.45081 -9.45514,-3.89064 -3.53124,-7.59375 0.92561,-0.57861 1.75089,-0.81103 2.5,-0.8125 z"
         style="fill:#ffff00;stroke:#000000;stroke-width:2;stroke-linecap:butt;stroke-linejoin:miter;stroke-miterlimit:4;stroke-opacity:1;stroke-dasharray:none" />
      <path
         inkscape:export-ydpi="77"
         inkscape:export-xdpi="77"
         inkscape:export-filename="/home/jrsoul/Projektai/NoisyNeighbors/path5126.png"
         sodipodi:nodetypes="sssccsc"
         inkscape:connector-curvature="0"
         id="path5122"
         d="m 1017.2728,259.86972 c -10.8592,0.50508 -16.0116,33.24923 0.7187,25.96875 14.6218,-6.36294 10.1404,-26.47382 -0.7187,-25.96875 z m -0.25,8.25 c 0.15,2e-4 0.2788,0.008 0.4375,0.0312 5.0754,0.75825 0.6972,13.01367 -2.5313,11.9375 -3.1276,-1.04253 -2.5579,-11.9749 2.0938,-11.96875 z"
         style="fill:#ffff00;stroke:#000000;stroke-width:2;stroke-linecap:butt;stroke-linejoin:miter;stroke-miterlimit:4;stroke-opacity:1;stroke-dasharray:none" />
      <path
         inkscape:export-ydpi="77"
         inkscape:export-xdpi="77"
         sodipodi:nodetypes="ccccccccccc"
         inkscape:connector-curvature="0"
         id="path5126"
         d="m 1030.8896,254.4367 1.0101,24.74873 5.6425,6.07143 -0.3571,-17.08593 8.8568,2.16823 0.505,-7.99456 -9.6323,-0.77556 1.4286,-6.65265 8.7088,1.54061 1.5152,-11.61675 z"
         style="fill:#ffff00;stroke:#000000;stroke-width:2;stroke-linecap:butt;stroke-linejoin:miter;stroke-miterlimit:4;stroke-opacity:1;stroke-dasharray:none" />
    </g>
    <g
       id="g5739"
       transform="translate(-45.714286,81.428571)">
      <path
         sodipodi:nodetypes="cccccccc"
         inkscape:connector-curvature="0"
         id="path4073"
         d="m 135,548.07647 c -26.93876,31.41972 -56.038797,13.12997 -80.570707,99.90718 l 76.999277,25.8071 -12.85714,60 -35.49021,85.99785 C 51.207933,774.07489 -6.7675454,724.55115 -4.2857143,605.21933 11.255295,521.53944 60.197227,504.6614 110,489.50504 z"
         style="fill:#808080;stroke:#000000;stroke-width:3;stroke-linecap:butt;stroke-linejoin:miter;stroke-miterlimit:4;stroke-opacity:1;stroke-dasharray:none" />
      <path
         sodipodi:nodetypes="ccccccccccccc"
         inkscape:connector-curvature="0"
         id="path4071"
         d="m 217.14286,468.07647 60,7.14286 -15.71429,37.14285 L 210,499.50504 l 0,21.42857 -14.28571,10 -47.14286,37.14286 c -44.92082,-28.68936 -47.14286,-26.05111 -47.14286,-75.71428 4.64577,-25.4737 17.92964,-43.54331 41.42857,-52.85715 l 81.42857,-14.28571 -4.28571,20 -25.71429,11.42857 z"
         style="fill:#ffd5d5;stroke:#000000;stroke-width:4;stroke-linecap:butt;stroke-linejoin:miter;stroke-miterlimit:4;stroke-opacity:1;stroke-dasharray:none" />
      <path
         sodipodi:nodetypes="cccccccc"
         inkscape:connector-curvature="0"
         id="path4077"
         d="m 470,572.36218 134.28571,60 114.28572,198.57143 -447.14286,7.14286 -192.10441,40.23278 C 27.319225,732.94441 141.63839,704.27712 163.57143,638.07647 l 133.57143,-58.57143 z"
         style="fill:#999999;stroke:#000000;stroke-width:1px;stroke-linecap:butt;stroke-linejoin:miter;stroke-opacity:1" />
      <path
         sodipodi:nodetypes="cczzzzczccccc"
         inkscape:connector-curvature="0"
         id="path4057"
         d="m 267.14286,483.79075 30,-67.14285 c 18.60254,-11.7241 17.7896,-21.2654 80,-24.28572 62.2104,-3.02032 81.40003,20.01427 97.14285,24.28572 15.74282,4.27145 50.36731,46.37836 57.14286,82.85714 6.77555,36.47878 -5.48228,79.24724 -28.57143,118.57143 -23.08915,39.32419 -111.42857,102.85714 -111.42857,102.85714 0,0 -137.61411,35.09814 -164.28571,28.57143 -26.6716,-6.52671 -112.33692,-17.31718 -132.857141,-81.42857 l 32.857141,-130.00001 51.42857,-12.85713 72.85714,15.71428 z"
         style="fill:#ffd5d5;stroke:#000000;stroke-width:6.30000019;stroke-linecap:butt;stroke-linejoin:miter;stroke-miterlimit:4;stroke-opacity:1;stroke-dasharray:none" />
      <path
         sodipodi:nodetypes="ccccccc"
         inkscape:connector-curvature="0"
         id="path4059"
         d="m 180,536.6479 97.14286,51.42856 81.42857,80.00001 50,-17.14286 L 394.28571,633.79075 290,566.6479 z"
         style="fill:#ffffff;stroke:#000000;stroke-width:2;stroke-linecap:butt;stroke-linejoin:miter;stroke-miterlimit:4;stroke-opacity:1;stroke-dasharray:none" />
      <path
         id="path4061"
         d="M 322.84375,452.375 260,453.78125 251.4375,539.5 302.84375,558.0625 321.4375,509.5 l 20,8.5625 -15.71875,48.59375 81.4375,20 21.40625,-52.875 L 510,529.5 l -1.4375,-21.4375 -62.84375,5.71875 5.71875,-42.84375 -90,-12.875 L 350,495.21875 321.4375,489.5 322.84375,452.375 z M 307.15625,463.78125 310,502.375 l -14.28125,35.6875 -30,-17.125 2.84375,-54.28125 38.59375,-2.875 z m 64.28125,7.15625 65.71875,4.28125 -41.4375,90 -50,-12.84375 25.71875,-81.4375 z"
         style="fill:#000000;stroke:#000000;stroke-width:1px;stroke-linecap:butt;stroke-linejoin:miter;stroke-opacity:1"
         inkscape:connector-curvature="0" />
      <path
         inkscape:connector-curvature="0"
         id="path4640"
         d="M 486.42857,535.21932 475,552.36218 l -15.71429,0.71429 12.85715,1.42857 4.28571,17.85714 2.14286,17.14286 3.57143,-15 5.71428,-2.14286 4.28572,-23.57143 z"
         style="fill:#000000;stroke:#000000;stroke-width:1px;stroke-linecap:butt;stroke-linejoin:miter;stroke-opacity:1" />
      <path
         sodipodi:nodetypes="cccccccccccccccc"
         inkscape:connector-curvature="0"
         id="path4069"
         d="M 484.28571,539.50504 C 479.9563,547.66056 466.9171,548.84825 480,570.93361 l 82.14286,12.85715 c -10.42461,9.1711 -53.31933,-4.0089 -35,27.14285 -2.45066,15.17133 -5.93511,19.51085 6.42857,23.57143 -23.25073,-3.25073 -8.53062,14.32652 -13.57143,29.28571 -0.61947,25.65529 16.06161,29.68489 30,37.14286 l 44.28571,12.85714 38.57143,1.42858 L 680,673.79075 c 10.70786,-40.23938 3.53517,-84.05487 -14.28571,-130 -24.53746,-16.38762 -46.39986,-40.80043 -67.14286,-68.57142 -11.68675,7.65279 -14.18822,5.22221 -15.71428,29.28571 3.49975,21.01829 12.52566,21.65151 22.85714,30.71429 l -4.28572,18.57142 z"
         style="fill:#ffd5d5;stroke:#000000;stroke-width:6;stroke-linecap:butt;stroke-linejoin:miter;stroke-miterlimit:4;stroke-opacity:1;stroke-dasharray:none" />
      <path
         sodipodi:nodetypes="cccccc"
         inkscape:connector-curvature="0"
         id="path4075"
         d="m 576.42858,707.36218 c -22.25924,40.32757 -52.65214,49.92792 -59.28572,149.28572 l 206.42857,7.14285 -27.85714,-131.42857 -16.42858,-62.85714 c -23.49772,29.71875 -64.18031,49.60879 -102.85713,37.85714 z"
         style="fill:#999999;stroke:#000000;stroke-width:8;stroke-linecap:butt;stroke-linejoin:miter;stroke-miterlimit:4;stroke-opacity:1;stroke-dasharray:none" />
      <path
         sodipodi:nodetypes="ccc"
         inkscape:connector-curvature="0"
         id="path4630"
         d="m 415.71428,515.21933 c -18.37926,-6.69046 -39.00992,-2.87432 -61.42857,9.28571 15.63895,-0.82659 38.39553,-8.24423 50.25998,0.92349"
         style="fill:none;stroke:#000000;stroke-width:2;stroke-linecap:butt;stroke-linejoin:miter;stroke-miterlimit:4;stroke-opacity:1;stroke-dasharray:none" />
      <path
         sodipodi:nodetypes="ccc"
         inkscape:connector-curvature="0"
         id="path4632"
         d="m 272.14286,490.21932 c 16.23599,2.90792 32.37528,5.96088 40.71428,20.71429 -11.97471,-10.49103 -29.83003,-14.19871 -43.11712,-11.56599"
         style="fill:none;stroke:#000000;stroke-width:2;stroke-linecap:butt;stroke-linejoin:miter;stroke-miterlimit:4;stroke-opacity:1;stroke-dasharray:none" />
      <path
         inkscape:connector-curvature="0"
         id="path4634"
         d="m 327.85714,638.79075 17.85715,-22.14285 -13.57143,27.14285 z"
         style="fill:#000000;stroke:#000000;stroke-width:1px;stroke-linecap:butt;stroke-linejoin:miter;stroke-opacity:1" />
      <path
         inkscape:connector-curvature="0"
         id="path4636"
         d="m 292.85714,603.79075 9.28572,-12.14285 -3.57143,16.42857 z"
         style="fill:#000000;stroke:#000000;stroke-width:1px;stroke-linecap:butt;stroke-linejoin:miter;stroke-opacity:1" />
      <path
         inkscape:connector-curvature="0"
         id="path4638"
         d="m 265.71429,560.21932 -3.57143,10.71429 12.14285,-7.85714 z"
         style="fill:#000000;stroke:#000000;stroke-width:1px;stroke-linecap:butt;stroke-linejoin:miter;stroke-opacity:1" />
    </g>
    <g
       id="g5674"
       transform="matrix(0.77370945,0.63354059,-0.63354059,0.77370945,-164.01886,-811.2281)"
       style="stroke-width:2;stroke-miterlimit:4;stroke-dasharray:none;opacity:0.42545455">
      <path
         inkscape:export-ydpi="51.763367"
         inkscape:export-xdpi="51.763367"
         inkscape:export-filename="/home/jrsoul/Projektai/NoisyNeighbors/path5107.png"
         sodipodi:nodetypes="zzczccz"
         inkscape:connector-curvature="0"
         id="path5105"
         d="m 1005.8576,759.56672 c -4.7128,10.33626 -1.967,31.75071 2.1428,37.5 4.1098,5.7493 21.7858,8.58005 33.2143,2.14286 6.8795,-11.41562 0.4678,-19.0592 -6.7857,-19.64287 -7.2535,-0.58366 -8.7259,23.23589 -20.7143,9.64287 l 5.3572,-26.42858 c 2.9432,-4.9875 -8.5016,-13.55054 -13.2143,-3.21428 z"
         style="fill:#ff0000;stroke:#000000;stroke-width:2;stroke-linecap:butt;stroke-linejoin:miter;stroke-miterlimit:4;stroke-opacity:1;stroke-dasharray:none" />
      <path
         inkscape:export-ydpi="51.763367"
         inkscape:export-xdpi="51.763367"
         inkscape:export-filename="/home/jrsoul/Projektai/NoisyNeighbors/path5107.png"
         sodipodi:nodetypes="zcczczzcczzccz"
         inkscape:connector-curvature="0"
         id="path5103"
         d="m 1001.2236,760.28936 c -2.37138,-10.77653 -27.51334,-0.0134 -27.51334,-0.0134 l -2.125,46.4375 c 12.70891,-0.1728 37.63944,-0.98526 37.84374,-16.42858 0.2043,-15.44331 -13.11237,-14.27093 -22.15624,-11.44642 14.88794,-2.12755 16.32234,-7.77258 13.95084,-18.54911 z m -9.30798,5.70982 c -1.28579,7.41849 -9.62054,7.86161 -9.62054,7.86161 l 0.71875,-10.00446 c -0.27722,-1.61615 10.18757,-5.27564 8.90179,2.14285 z m 5.01786,24.29018 c -1.57876,9.42749 -13.93751,5.70536 -13.93751,5.70536 l 1.44197,-10.35714 c 0,0 14.07429,-4.77571 12.49554,4.65178 z"
         style="fill:#ff0000;stroke:#000000;stroke-width:2;stroke-linecap:butt;stroke-linejoin:miter;stroke-miterlimit:4;stroke-opacity:1;stroke-dasharray:none" />
      <path
         inkscape:export-ydpi="51.763367"
         inkscape:export-xdpi="51.763367"
         sodipodi:nodetypes="zzzzzzzzccz"
         inkscape:connector-curvature="0"
         id="path5107"
         d="m 1053.7058,749.21348 c -12.9698,-2.07382 -14.8853,42.58661 -13.2143,50.70982 1.671,8.12321 8.9753,5.0468 11.4375,0.71875 2.4622,-4.32805 -6.0844,-22.34741 2.8616,-23.58036 8.9461,-1.23294 8.2202,16.70871 11.0536,20.70536 2.8333,3.99665 9.781,1.77749 10.3839,-2.49554 0.6029,-4.27303 -9.5525,-43.98421 -22.5223,-46.05803 z m -1.0714,11.08036 c 6.9245,-1.70623 7.1384,10.34821 7.1384,10.34821 -3.3507,-2.49883 -8.8932,-0.62874 -10.6875,1.4375 0,0 -3.3755,-10.07949 3.5491,-11.78571 z"
         style="fill:#ff0000;stroke:#000000;stroke-width:2;stroke-linecap:butt;stroke-linejoin:miter;stroke-miterlimit:4;stroke-opacity:1;stroke-dasharray:none" />
    </g>
    <g
       transform="matrix(0.97433612,0.22509802,-0.22509802,0.97433612,-712.75901,-613.73471)"
       id="g5699"
       style="stroke-width:2;stroke-miterlimit:4;stroke-dasharray:none;opacity:0.64">
      <path
         style="fill:#ff0000;stroke:#000000;stroke-width:2;stroke-linecap:butt;stroke-linejoin:miter;stroke-miterlimit:4;stroke-opacity:1;stroke-dasharray:none"
         d="m 1005.8576,759.56672 c -4.7128,10.33626 -1.967,31.75071 2.1428,37.5 4.1098,5.7493 21.7858,8.58005 33.2143,2.14286 6.8795,-11.41562 0.4678,-19.0592 -6.7857,-19.64287 -7.2535,-0.58366 -8.7259,23.23589 -20.7143,9.64287 l 5.3572,-26.42858 c 2.9432,-4.9875 -8.5016,-13.55054 -13.2143,-3.21428 z"
         id="path5701"
         inkscape:connector-curvature="0"
         sodipodi:nodetypes="zzczccz"
         inkscape:export-filename="/home/jrsoul/Projektai/NoisyNeighbors/path5107.png"
         inkscape:export-xdpi="51.763367"
         inkscape:export-ydpi="51.763367" />
      <path
         style="fill:#ff0000;stroke:#000000;stroke-width:2;stroke-linecap:butt;stroke-linejoin:miter;stroke-miterlimit:4;stroke-opacity:1;stroke-dasharray:none"
         d="m 1001.2236,760.28936 c -2.37138,-10.77653 -27.51334,-0.0134 -27.51334,-0.0134 l -2.125,46.4375 c 12.70891,-0.1728 37.63944,-0.98526 37.84374,-16.42858 0.2043,-15.44331 -13.11237,-14.27093 -22.15624,-11.44642 14.88794,-2.12755 16.32234,-7.77258 13.95084,-18.54911 z m -9.30798,5.70982 c -1.28579,7.41849 -9.62054,7.86161 -9.62054,7.86161 l 0.71875,-10.00446 c -0.27722,-1.61615 10.18757,-5.27564 8.90179,2.14285 z m 5.01786,24.29018 c -1.57876,9.42749 -13.93751,5.70536 -13.93751,5.70536 l 1.44197,-10.35714 c 0,0 14.07429,-4.77571 12.49554,4.65178 z"
         id="path5703"
         inkscape:connector-curvature="0"
         sodipodi:nodetypes="zcczczzcczzccz"
         inkscape:export-filename="/home/jrsoul/Projektai/NoisyNeighbors/path5107.png"
         inkscape:export-xdpi="51.763367"
         inkscape:export-ydpi="51.763367" />
      <path
         style="fill:#ff0000;stroke:#000000;stroke-width:2;stroke-linecap:butt;stroke-linejoin:miter;stroke-miterlimit:4;stroke-opacity:1;stroke-dasharray:none"
         d="m 1053.7058,749.21348 c -12.9698,-2.07382 -14.8853,42.58661 -13.2143,50.70982 1.671,8.12321 8.9753,5.0468 11.4375,0.71875 2.4622,-4.32805 -6.0844,-22.34741 2.8616,-23.58036 8.9461,-1.23294 8.2202,16.70871 11.0536,20.70536 2.8333,3.99665 9.781,1.77749 10.3839,-2.49554 0.6029,-4.27303 -9.5525,-43.98421 -22.5223,-46.05803 z m -1.0714,11.08036 c 6.9245,-1.70623 7.1384,10.34821 7.1384,10.34821 -3.3507,-2.49883 -8.8932,-0.62874 -10.6875,1.4375 0,0 -3.3755,-10.07949 3.5491,-11.78571 z"
         id="path5705"
         inkscape:connector-curvature="0"
         sodipodi:nodetypes="zzzzzzzzccz"
         inkscape:export-xdpi="51.763367"
         inkscape:export-ydpi="51.763367" />
    </g>
    <g
       style="stroke-width:2;stroke-miterlimit:4;stroke-dasharray:none;opacity:0.68"
       id="g5707"
       transform="matrix(0.97433612,0.22509802,-0.22509802,0.97433612,-731.33044,-668.02043)">
      <path
         inkscape:export-ydpi="51.763367"
         inkscape:export-xdpi="51.763367"
         inkscape:export-filename="/home/jrsoul/Projektai/NoisyNeighbors/path5107.png"
         sodipodi:nodetypes="zzczccz"
         inkscape:connector-curvature="0"
         id="path5709"
         d="m 1005.8576,759.56672 c -4.7128,10.33626 -1.967,31.75071 2.1428,37.5 4.1098,5.7493 21.7858,8.58005 33.2143,2.14286 6.8795,-11.41562 0.4678,-19.0592 -6.7857,-19.64287 -7.2535,-0.58366 -8.7259,23.23589 -20.7143,9.64287 l 5.3572,-26.42858 c 2.9432,-4.9875 -8.5016,-13.55054 -13.2143,-3.21428 z"
         style="fill:#ff0000;stroke:#000000;stroke-width:2;stroke-linecap:butt;stroke-linejoin:miter;stroke-miterlimit:4;stroke-opacity:1;stroke-dasharray:none" />
      <path
         inkscape:export-ydpi="51.763367"
         inkscape:export-xdpi="51.763367"
         inkscape:export-filename="/home/jrsoul/Projektai/NoisyNeighbors/path5107.png"
         sodipodi:nodetypes="zcczczzcczzccz"
         inkscape:connector-curvature="0"
         id="path5711"
         d="m 1001.2236,760.28936 c -2.37138,-10.77653 -27.51334,-0.0134 -27.51334,-0.0134 l -2.125,46.4375 c 12.70891,-0.1728 37.63944,-0.98526 37.84374,-16.42858 0.2043,-15.44331 -13.11237,-14.27093 -22.15624,-11.44642 14.88794,-2.12755 16.32234,-7.77258 13.95084,-18.54911 z m -9.30798,5.70982 c -1.28579,7.41849 -9.62054,7.86161 -9.62054,7.86161 l 0.71875,-10.00446 c -0.27722,-1.61615 10.18757,-5.27564 8.90179,2.14285 z m 5.01786,24.29018 c -1.57876,9.42749 -13.93751,5.70536 -13.93751,5.70536 l 1.44197,-10.35714 c 0,0 14.07429,-4.77571 12.49554,4.65178 z"
         style="fill:#ff0000;stroke:#000000;stroke-width:2;stroke-linecap:butt;stroke-linejoin:miter;stroke-miterlimit:4;stroke-opacity:1;stroke-dasharray:none" />
      <path
         inkscape:export-ydpi="51.763367"
         inkscape:export-xdpi="51.763367"
         sodipodi:nodetypes="zzzzzzzzccz"
         inkscape:connector-curvature="0"
         id="path5713"
         d="m 1053.7058,749.21348 c -12.9698,-2.07382 -14.8853,42.58661 -13.2143,50.70982 1.671,8.12321 8.9753,5.0468 11.4375,0.71875 2.4622,-4.32805 -6.0844,-22.34741 2.8616,-23.58036 8.9461,-1.23294 8.2202,16.70871 11.0536,20.70536 2.8333,3.99665 9.781,1.77749 10.3839,-2.49554 0.6029,-4.27303 -9.5525,-43.98421 -22.5223,-46.05803 z m -1.0714,11.08036 c 6.9245,-1.70623 7.1384,10.34821 7.1384,10.34821 -3.3507,-2.49883 -8.8932,-0.62874 -10.6875,1.4375 0,0 -3.3755,-10.07949 3.5491,-11.78571 z"
         style="fill:#ff0000;stroke:#000000;stroke-width:2;stroke-linecap:butt;stroke-linejoin:miter;stroke-miterlimit:4;stroke-opacity:1;stroke-dasharray:none" />
    </g>
    <g
       transform="matrix(0.72322375,0.69061379,-0.69061379,0.72322375,-394.34415,-607.52775)"
       id="g5715"
       style="stroke-width:2;stroke-miterlimit:4;stroke-dasharray:none;opacity:0.52363636">
      <path
         inkscape:connector-curvature="0"
         style="fill:#e6e6e6;stroke:#000000;stroke-width:2;stroke-linecap:butt;stroke-linejoin:miter;stroke-miterlimit:4;stroke-opacity:1;stroke-dasharray:none"
         d="m 1057.7135,436.31905 1.0102,46.81853 11.4062,0 -3.5625,-21.4375 12.875,20.71875 7.8438,-5.71875 -16.4375,-20.71875 25,-9.28125 z m 7.1639,8.10819 10.5633,3.71034 -9.592,3.91212 z"
         id="path5717"
         sodipodi:nodetypes="ccccccccccccc"
         inkscape:export-filename="/home/jrsoul/Projektai/NoisyNeighbors/path3220.png"
         inkscape:export-xdpi="76.844551"
         inkscape:export-ydpi="76.844551" />
      <path
         id="path5719"
         d="m 1031.5375,436.36237 0.7576,46.06092 11.4062,0 -3.5625,-21.4375 12.875,20.71875 7.8438,-5.71875 -16.4375,-20.71875 25,-9.28125 z m 6.6588,8.10819 9.048,2.70019 -8.0768,2.90197 z"
         style="fill:#e6e6e6;stroke:#000000;stroke-width:2;stroke-linecap:butt;stroke-linejoin:miter;stroke-miterlimit:4;stroke-opacity:1;stroke-dasharray:none"
         inkscape:connector-curvature="0"
         sodipodi:nodetypes="ccccccccccccc"
         inkscape:export-filename="/home/jrsoul/Projektai/NoisyNeighbors/path3220.png"
         inkscape:export-xdpi="76.844551"
         inkscape:export-ydpi="76.844551" />
      <path
         style="fill:#e6e6e6;stroke:#000000;stroke-width:2;stroke-linecap:butt;stroke-linejoin:miter;stroke-miterlimit:4;stroke-opacity:1;stroke-dasharray:none"
         d="m 1001.3283,437.07666 0.2525,46.06092 11.4062,0 -3.5625,-21.4375 12.875,20.71875 7.8438,-5.71875 -16.4375,-20.71875 25,-9.28125 z m 6.6587,9.62342 9.0481,1.69004 -8.8344,4.41719 z"
         id="path5721"
         inkscape:connector-curvature="0"
         sodipodi:nodetypes="ccccccccccccc"
         inkscape:export-filename="/home/jrsoul/Projektai/NoisyNeighbors/path3220.png"
         inkscape:export-xdpi="76.844551"
         inkscape:export-ydpi="76.844551" />
      <path
         style="fill:#e6e6e6;stroke:#000000;stroke-width:2;stroke-linecap:butt;stroke-linejoin:miter;stroke-miterlimit:4;stroke-opacity:1;stroke-dasharray:none"
         d="m 977.27276,442.43222 0,41.40625 33.59374,-22.125 z m 7.15625,12.84375 12.84375,6.4375 -12.125,5.95939 z"
         id="path5723"
         inkscape:connector-curvature="0"
         sodipodi:nodetypes="cccccccc"
         inkscape:export-filename="/home/jrsoul/Projektai/NoisyNeighbors/path3220.png"
         inkscape:export-xdpi="76.844551"
         inkscape:export-ydpi="76.844551" />
      <path
         id="path5725"
         d="m 953.70133,442.43222 0,41.40625 33.59375,-22.125 -33.59375,-19.28125 z m 7.15625,12.84375 12.84375,6.4375 -12.125,10 -0.71875,-16.4375 z"
         style="fill:#e6e6e6;stroke:#000000;stroke-width:2;stroke-linecap:butt;stroke-linejoin:miter;stroke-miterlimit:4;stroke-opacity:1;stroke-dasharray:none"
         inkscape:connector-curvature="0"
         inkscape:export-filename="/home/jrsoul/Projektai/NoisyNeighbors/path3220.png"
         inkscape:export-xdpi="76.844551"
         inkscape:export-ydpi="76.844551" />
      <path
         inkscape:connector-curvature="0"
         style="fill:#e6e6e6;stroke:#000000;stroke-width:2;stroke-linecap:butt;stroke-linejoin:miter;stroke-miterlimit:4;stroke-opacity:1;stroke-dasharray:none"
         d="m 953.70133,442.43222 0,41.40625 33.59375,-22.125 z m 7.15625,12.84375 12.84375,6.4375 -12.37754,6.21193 z"
         id="path5727"
         sodipodi:nodetypes="cccccccc"
         inkscape:export-xdpi="76.844551"
         inkscape:export-ydpi="76.844551" />
    </g>
    <flowRoot
       xml:space="preserve"
       id="flowRoot5775"
       style="font-size:12px;font-style:normal;font-variant:normal;font-weight:normal;font-stretch:normal;line-height:125%;letter-spacing:0px;word-spacing:0px;fill:#000000;fill-opacity:1;stroke:none;font-family:SmackAttack BB;-inkscape-font-specification:SmackAttack BB"
       transform="translate(85.714286,-4.2857143)"><flowRegion
         id="flowRegion5777"><rect
           id="rect5779"
           width="202.85715"
           height="92.85714"
           x="597.14288"
           y="232.36218" /></flowRegion><flowPara
         id="flowPara5781"
         style="font-size:18px;fill:#ffffff">jrs0ul 2011</flowPara></flowRoot>  </g>
</svg>
